<svg width="18" height="18" viewBox="0 0 18 18" fill="none" xmlns="http://www.w3.org/2000/svg">
<g id="Iconly/Bulk/Bag">
<g id="Bag">
<path id="Combined Shape" fill-rule="evenodd" clip-rule="evenodd" d="M15.6849 12.2361L15.1083 7.59005C14.757 5.93223 13.7627 5.25 12.8148 5.25H5.19878C4.23766 5.25 3.21026 5.88448 2.91198 7.59005L2.32868 12.2361C1.85143 15.6472 3.60796 16.5 5.9014 16.5H12.1189C14.4057 16.5 16.1092 15.2652 15.6849 12.2361ZM6.82273 9.11141C6.45665 9.11141 6.15989 8.80596 6.15989 8.42918C6.15989 8.05239 6.45665 7.74694 6.82273 7.74694C7.18881 7.74694 7.48557 8.05239 7.48557 8.42918C7.48557 8.80596 7.18881 9.11141 6.82273 9.11141ZM10.5015 8.42918C10.5015 8.80596 10.7983 9.11141 11.1644 9.11141C11.5304 9.11141 11.8272 8.80596 11.8272 8.42918C11.8272 8.05239 11.5304 7.74694 11.1644 7.74694C10.7983 7.74694 10.5015 8.05239 10.5015 8.42918Z" fill="#006AFF"/>
<path id="Path_34167" opacity="0.4" d="M12.7304 5.08074C12.7328 5.13892 12.7216 5.19684 12.6977 5.25H11.6199C11.599 5.19596 11.588 5.13865 11.5872 5.08074C11.5872 3.64262 10.4174 2.47679 8.97431 2.47679C7.53123 2.47679 6.36138 3.64262 6.36138 5.08074C6.37127 5.13673 6.37127 5.19401 6.36138 5.25H5.25742C5.24753 5.19401 5.24753 5.13673 5.25742 5.08074C5.34129 3.07943 6.99375 1.5 9.00371 1.5C11.0137 1.5 12.6661 3.07943 12.75 5.08074H12.7304Z" fill="#006AFF"/>
</g>
</g>
</svg>
