<svg width="18" height="18" viewBox="0 0 18 18" fill="none" xmlns="http://www.w3.org/2000/svg">
<g id="Iconly/Bulk/Chat">
<g id="Chat">
<path id="Fill 1" opacity="0.4" d="M9.015 1.5C4.6575 1.5 1.5 5.055 1.5 9C1.5 10.26 1.8675 11.5575 2.5125 12.7425C2.6325 12.9375 2.6475 13.185 2.565 13.4175L2.0625 15.0975C1.95 15.5025 2.295 15.8025 2.6775 15.6825L4.1925 15.2325C4.605 15.0975 4.9275 15.27 5.31075 15.5025C6.40575 16.1475 7.77 16.4775 9 16.4775C12.72 16.4775 16.5 13.605 16.5 8.9775C16.5 4.9875 13.275 1.5 9.015 1.5Z" fill="#006AFF"/>
<path id="Combined Shape" fill-rule="evenodd" clip-rule="evenodd" d="M8.9852 9.96746C8.4527 9.95996 8.0252 9.53246 8.0252 8.99996C8.0252 8.47496 8.4602 8.03996 8.9852 8.04746C9.5177 8.04746 9.9452 8.47496 9.9452 9.00746C9.9452 9.53246 9.5177 9.96746 8.9852 9.96746ZM5.52738 9.96749C5.00238 9.96749 4.56738 9.53249 4.56738 9.00749C4.56738 8.47499 4.99488 8.04749 5.52738 8.04749C6.05988 8.04749 6.48738 8.47499 6.48738 9.00749C6.48738 9.53249 6.05988 9.95999 5.52738 9.96749ZM11.4825 9.00746C11.4825 9.53246 11.91 9.96746 12.4425 9.96746C12.975 9.96746 13.4025 9.53246 13.4025 9.00746C13.4025 8.47496 12.975 8.04746 12.4425 8.04746C11.91 8.04746 11.4825 8.47496 11.4825 9.00746Z" fill="#006AFF"/>
</g>
</g>
</svg>
