<svg width="18" height="18" viewBox="0 0 18 18" fill="none" xmlns="http://www.w3.org/2000/svg">
<g id="Iconly/Bulk/Video">
<g id="Video">
<path id="Fill 1" opacity="0.4" d="M15.9982 5.58182C15.6839 5.38385 15.2977 5.36634 14.9684 5.53385L13.8569 6.09502C13.4459 6.30212 13.1909 6.7209 13.1909 7.18689V11.562C13.1909 12.028 13.4459 12.446 13.8569 12.6547L14.9677 13.2151C15.1184 13.2927 15.2797 13.33 15.4409 13.33C15.6344 13.33 15.8264 13.2752 15.9982 13.1679C16.3124 12.9707 16.5 12.6288 16.5 12.2542V6.49628C16.5 6.12167 16.3124 5.77979 15.9982 5.58182Z" fill="#006AFF"/>
<path id="Fill 3" d="M8.92882 15H4.58478C2.76826 15 1.5 13.7475 1.5 11.9543V6.79569C1.5 5.00178 2.76826 3.75 4.58478 3.75H8.92882C10.7453 3.75 12.0136 5.00178 12.0136 6.79569V11.9543C12.0136 13.7475 10.7453 15 8.92882 15Z" fill="#006AFF"/>
</g>
</g>
</svg>
